<mxfile host="app.diagrams.net" modified="2024-05-06T09:53:02.223Z" agent="Mozilla/5.0 (Windows NT 10.0; Win64; x64) AppleWebKit/537.36 (KHTML, like Gecko) Chrome/124.0.0.0 Safari/537.36 Edg/124.0.0.0" etag="fuo_ZD2bU0iUI_2xCWhb" version="24.3.1" type="device">
  <diagram name="Page-1" id="pzeMYIyEBwPFijjUEeZY">
    <mxGraphModel dx="868" dy="485" grid="1" gridSize="10" guides="1" tooltips="1" connect="1" arrows="1" fold="1" page="1" pageScale="1" pageWidth="850" pageHeight="1100" math="0" shadow="0">
      <root>
        <mxCell id="0" />
        <mxCell id="1" parent="0" />
        <mxCell id="yZcJDPqjgEPUYYeSHxlo-9" value="Yes" style="text;html=1;align=center;verticalAlign=middle;whiteSpace=wrap;rounded=0;" vertex="1" parent="1">
          <mxGeometry x="529" y="554" width="60" height="30" as="geometry" />
        </mxCell>
        <mxCell id="yZcJDPqjgEPUYYeSHxlo-150" style="edgeStyle=orthogonalEdgeStyle;rounded=0;orthogonalLoop=1;jettySize=auto;html=1;entryX=0.5;entryY=0;entryDx=0;entryDy=0;" edge="1" parent="1" source="yZcJDPqjgEPUYYeSHxlo-13" target="yZcJDPqjgEPUYYeSHxlo-149">
          <mxGeometry relative="1" as="geometry" />
        </mxCell>
        <mxCell id="yZcJDPqjgEPUYYeSHxlo-179" style="edgeStyle=orthogonalEdgeStyle;rounded=0;orthogonalLoop=1;jettySize=auto;html=1;entryX=0;entryY=0.5;entryDx=0;entryDy=0;" edge="1" parent="1" source="yZcJDPqjgEPUYYeSHxlo-13" target="yZcJDPqjgEPUYYeSHxlo-178">
          <mxGeometry relative="1" as="geometry" />
        </mxCell>
        <mxCell id="yZcJDPqjgEPUYYeSHxlo-13" value="Ball hit Finish" style="rhombus;whiteSpace=wrap;html=1;" vertex="1" parent="1">
          <mxGeometry x="522.87" y="930" width="100" height="80" as="geometry" />
        </mxCell>
        <mxCell id="yZcJDPqjgEPUYYeSHxlo-21" style="edgeStyle=orthogonalEdgeStyle;rounded=0;orthogonalLoop=1;jettySize=auto;html=1;exitX=0.5;exitY=1;exitDx=0;exitDy=0;" edge="1" parent="1" source="yZcJDPqjgEPUYYeSHxlo-22" target="yZcJDPqjgEPUYYeSHxlo-23">
          <mxGeometry relative="1" as="geometry">
            <mxPoint x="850.75" y="740" as="targetPoint" />
          </mxGeometry>
        </mxCell>
        <mxCell id="yZcJDPqjgEPUYYeSHxlo-176" style="edgeStyle=orthogonalEdgeStyle;rounded=0;orthogonalLoop=1;jettySize=auto;html=1;" edge="1" parent="1" source="yZcJDPqjgEPUYYeSHxlo-22" target="yZcJDPqjgEPUYYeSHxlo-172">
          <mxGeometry relative="1" as="geometry" />
        </mxCell>
        <mxCell id="yZcJDPqjgEPUYYeSHxlo-22" value="VirtualJoystick&amp;nbsp;&lt;div&gt;move&amp;nbsp;&lt;span style=&quot;background-color: initial;&quot;&gt;(upward/ downward/&amp;nbsp;&lt;/span&gt;&lt;/div&gt;&lt;div&gt;&lt;span style=&quot;background-color: initial;&quot;&gt;sideward)&lt;/span&gt;&lt;/div&gt;" style="rhombus;whiteSpace=wrap;html=1;" vertex="1" parent="1">
          <mxGeometry x="495.62" y="690" width="154.5" height="100" as="geometry" />
        </mxCell>
        <mxCell id="yZcJDPqjgEPUYYeSHxlo-28" style="edgeStyle=orthogonalEdgeStyle;rounded=0;orthogonalLoop=1;jettySize=auto;html=1;entryX=0.5;entryY=0;entryDx=0;entryDy=0;exitX=0.5;exitY=1;exitDx=0;exitDy=0;" edge="1" parent="1" source="yZcJDPqjgEPUYYeSHxlo-23" target="yZcJDPqjgEPUYYeSHxlo-13">
          <mxGeometry relative="1" as="geometry">
            <Array as="points">
              <mxPoint x="573" y="920" />
              <mxPoint x="573" y="920" />
            </Array>
          </mxGeometry>
        </mxCell>
        <mxCell id="yZcJDPqjgEPUYYeSHxlo-23" value="Ball move (upward/ downward/ sideward)" style="rounded=0;whiteSpace=wrap;html=1;" vertex="1" parent="1">
          <mxGeometry x="512.86" y="831" width="120" height="60" as="geometry" />
        </mxCell>
        <mxCell id="yZcJDPqjgEPUYYeSHxlo-26" value="No" style="text;html=1;align=center;verticalAlign=middle;whiteSpace=wrap;rounded=0;" vertex="1" parent="1">
          <mxGeometry x="610" y="264" width="60" height="30" as="geometry" />
        </mxCell>
        <mxCell id="yZcJDPqjgEPUYYeSHxlo-29" value="No" style="text;html=1;align=center;verticalAlign=middle;whiteSpace=wrap;rounded=0;" vertex="1" parent="1">
          <mxGeometry x="608" y="484" width="60" height="30" as="geometry" />
        </mxCell>
        <mxCell id="yZcJDPqjgEPUYYeSHxlo-33" value="No" style="text;html=1;align=center;verticalAlign=middle;whiteSpace=wrap;rounded=0;" vertex="1" parent="1">
          <mxGeometry x="608" y="940" width="60" height="30" as="geometry" />
        </mxCell>
        <mxCell id="yZcJDPqjgEPUYYeSHxlo-182" style="edgeStyle=orthogonalEdgeStyle;rounded=0;orthogonalLoop=1;jettySize=auto;html=1;entryX=0;entryY=0.5;entryDx=0;entryDy=0;" edge="1" parent="1" source="yZcJDPqjgEPUYYeSHxlo-38" target="yZcJDPqjgEPUYYeSHxlo-145">
          <mxGeometry relative="1" as="geometry">
            <Array as="points">
              <mxPoint x="470" y="1184" />
              <mxPoint x="470" y="290" />
            </Array>
          </mxGeometry>
        </mxCell>
        <mxCell id="yZcJDPqjgEPUYYeSHxlo-183" style="edgeStyle=orthogonalEdgeStyle;rounded=0;orthogonalLoop=1;jettySize=auto;html=1;entryX=0.5;entryY=0;entryDx=0;entryDy=0;" edge="1" parent="1" source="yZcJDPqjgEPUYYeSHxlo-38" target="yZcJDPqjgEPUYYeSHxlo-43">
          <mxGeometry relative="1" as="geometry" />
        </mxCell>
        <mxCell id="yZcJDPqjgEPUYYeSHxlo-38" value="TryAgainButton pressed" style="rhombus;whiteSpace=wrap;html=1;" vertex="1" parent="1">
          <mxGeometry x="513.9899999999999" y="1140" width="117.75" height="87" as="geometry" />
        </mxCell>
        <mxCell id="yZcJDPqjgEPUYYeSHxlo-41" value="Yes" style="text;html=1;align=center;verticalAlign=middle;whiteSpace=wrap;rounded=0;" vertex="1" parent="1">
          <mxGeometry x="470" y="1154" width="60" height="30" as="geometry" />
        </mxCell>
        <mxCell id="yZcJDPqjgEPUYYeSHxlo-55" value="" style="edgeStyle=orthogonalEdgeStyle;rounded=0;orthogonalLoop=1;jettySize=auto;html=1;exitX=0.5;exitY=1;exitDx=0;exitDy=0;" edge="1" parent="1" source="yZcJDPqjgEPUYYeSHxlo-43" target="yZcJDPqjgEPUYYeSHxlo-54">
          <mxGeometry relative="1" as="geometry" />
        </mxCell>
        <mxCell id="yZcJDPqjgEPUYYeSHxlo-43" value="MainMenuButton pressed" style="rhombus;whiteSpace=wrap;html=1;" vertex="1" parent="1">
          <mxGeometry x="508.9899999999999" y="1270" width="127.75" height="90" as="geometry" />
        </mxCell>
        <mxCell id="yZcJDPqjgEPUYYeSHxlo-47" value="Yes" style="text;html=1;align=center;verticalAlign=middle;whiteSpace=wrap;rounded=0;" vertex="1" parent="1">
          <mxGeometry x="760" y="940" width="60" height="30" as="geometry" />
        </mxCell>
        <mxCell id="yZcJDPqjgEPUYYeSHxlo-49" value="No" style="text;html=1;align=center;verticalAlign=middle;whiteSpace=wrap;rounded=0;" vertex="1" parent="1">
          <mxGeometry x="522.87" y="1220" width="60" height="30" as="geometry" />
        </mxCell>
        <mxCell id="yZcJDPqjgEPUYYeSHxlo-112" style="edgeStyle=orthogonalEdgeStyle;rounded=0;orthogonalLoop=1;jettySize=auto;html=1;entryX=0.5;entryY=0;entryDx=0;entryDy=0;exitX=0;exitY=0.5;exitDx=0;exitDy=0;" edge="1" parent="1" source="yZcJDPqjgEPUYYeSHxlo-54" target="yZcJDPqjgEPUYYeSHxlo-66">
          <mxGeometry relative="1" as="geometry">
            <Array as="points">
              <mxPoint x="150" y="1443" />
              <mxPoint x="150" y="220" />
              <mxPoint x="240" y="220" />
            </Array>
          </mxGeometry>
        </mxCell>
        <mxCell id="yZcJDPqjgEPUYYeSHxlo-54" value="Activate MainMenu UI, deactivate all UI" style="whiteSpace=wrap;html=1;" vertex="1" parent="1">
          <mxGeometry x="512.86" y="1413" width="120" height="60" as="geometry" />
        </mxCell>
        <mxCell id="yZcJDPqjgEPUYYeSHxlo-57" value="No" style="text;html=1;align=center;verticalAlign=middle;whiteSpace=wrap;rounded=0;" vertex="1" parent="1">
          <mxGeometry x="616.87" y="1280" width="60" height="30" as="geometry" />
        </mxCell>
        <mxCell id="yZcJDPqjgEPUYYeSHxlo-58" value="Yes" style="text;html=1;align=center;verticalAlign=middle;whiteSpace=wrap;rounded=0;" vertex="1" parent="1">
          <mxGeometry x="530" y="1353" width="60" height="30" as="geometry" />
        </mxCell>
        <mxCell id="yZcJDPqjgEPUYYeSHxlo-60" value="AR MAZE" style="text;html=1;align=center;verticalAlign=middle;whiteSpace=wrap;rounded=0;perimeterSpacing=13;fontSize=20;" vertex="1" parent="1">
          <mxGeometry x="300" y="10" width="190" height="30" as="geometry" />
        </mxCell>
        <mxCell id="yZcJDPqjgEPUYYeSHxlo-65" value="" style="edgeStyle=orthogonalEdgeStyle;rounded=0;orthogonalLoop=1;jettySize=auto;html=1;" edge="1" parent="1" source="yZcJDPqjgEPUYYeSHxlo-63" target="yZcJDPqjgEPUYYeSHxlo-64">
          <mxGeometry relative="1" as="geometry" />
        </mxCell>
        <mxCell id="yZcJDPqjgEPUYYeSHxlo-63" value="Start" style="ellipse;whiteSpace=wrap;html=1;" vertex="1" parent="1">
          <mxGeometry x="200" y="80" width="80" height="53.33" as="geometry" />
        </mxCell>
        <mxCell id="yZcJDPqjgEPUYYeSHxlo-67" value="" style="edgeStyle=orthogonalEdgeStyle;rounded=0;orthogonalLoop=1;jettySize=auto;html=1;" edge="1" parent="1" source="yZcJDPqjgEPUYYeSHxlo-64" target="yZcJDPqjgEPUYYeSHxlo-66">
          <mxGeometry relative="1" as="geometry" />
        </mxCell>
        <mxCell id="yZcJDPqjgEPUYYeSHxlo-64" value="Activate MainMenu UI" style="whiteSpace=wrap;html=1;" vertex="1" parent="1">
          <mxGeometry x="180" y="160" width="120" height="50" as="geometry" />
        </mxCell>
        <mxCell id="yZcJDPqjgEPUYYeSHxlo-70" style="edgeStyle=orthogonalEdgeStyle;rounded=0;orthogonalLoop=1;jettySize=auto;html=1;" edge="1" parent="1" source="yZcJDPqjgEPUYYeSHxlo-66" target="yZcJDPqjgEPUYYeSHxlo-69">
          <mxGeometry relative="1" as="geometry">
            <mxPoint x="240.00000000000023" y="380" as="targetPoint" />
          </mxGeometry>
        </mxCell>
        <mxCell id="yZcJDPqjgEPUYYeSHxlo-81" style="edgeStyle=orthogonalEdgeStyle;rounded=0;orthogonalLoop=1;jettySize=auto;html=1;exitX=1;exitY=0.5;exitDx=0;exitDy=0;entryX=0;entryY=0.5;entryDx=0;entryDy=0;" edge="1" parent="1" source="yZcJDPqjgEPUYYeSHxlo-66" target="yZcJDPqjgEPUYYeSHxlo-138">
          <mxGeometry relative="1" as="geometry">
            <mxPoint x="310" y="300" as="targetPoint" />
            <Array as="points">
              <mxPoint x="330" y="289" />
              <mxPoint x="330" y="289" />
            </Array>
          </mxGeometry>
        </mxCell>
        <mxCell id="yZcJDPqjgEPUYYeSHxlo-66" value="Button&amp;nbsp;&lt;div&gt;MazeButton pressed&lt;/div&gt;" style="rhombus;whiteSpace=wrap;html=1;" vertex="1" parent="1">
          <mxGeometry x="185" y="239" width="110" height="100" as="geometry" />
        </mxCell>
        <mxCell id="yZcJDPqjgEPUYYeSHxlo-77" style="edgeStyle=orthogonalEdgeStyle;rounded=0;orthogonalLoop=1;jettySize=auto;html=1;entryX=0.5;entryY=0;entryDx=0;entryDy=0;exitX=0;exitY=0.5;exitDx=0;exitDy=0;" edge="1" parent="1" source="yZcJDPqjgEPUYYeSHxlo-69" target="yZcJDPqjgEPUYYeSHxlo-66">
          <mxGeometry relative="1" as="geometry">
            <Array as="points">
              <mxPoint x="150" y="427" />
              <mxPoint x="150" y="220" />
              <mxPoint x="240" y="220" />
            </Array>
          </mxGeometry>
        </mxCell>
        <mxCell id="yZcJDPqjgEPUYYeSHxlo-80" style="edgeStyle=orthogonalEdgeStyle;rounded=0;orthogonalLoop=1;jettySize=auto;html=1;exitX=0.5;exitY=1;exitDx=0;exitDy=0;entryX=0.5;entryY=0;entryDx=0;entryDy=0;" edge="1" parent="1" source="yZcJDPqjgEPUYYeSHxlo-69" target="yZcJDPqjgEPUYYeSHxlo-186">
          <mxGeometry relative="1" as="geometry">
            <mxPoint x="240" y="510" as="targetPoint" />
          </mxGeometry>
        </mxCell>
        <mxCell id="yZcJDPqjgEPUYYeSHxlo-69" value="ExitButton&amp;nbsp;&lt;div&gt;pressed&lt;/div&gt;" style="rhombus;whiteSpace=wrap;html=1;" vertex="1" parent="1">
          <mxGeometry x="185" y="376.99999999999994" width="110" height="100" as="geometry" />
        </mxCell>
        <mxCell id="yZcJDPqjgEPUYYeSHxlo-72" value="No" style="text;html=1;align=center;verticalAlign=middle;whiteSpace=wrap;rounded=0;" vertex="1" parent="1">
          <mxGeometry x="150" y="396.99999999999994" width="60" height="30" as="geometry" />
        </mxCell>
        <mxCell id="yZcJDPqjgEPUYYeSHxlo-74" value="No" style="text;html=1;align=center;verticalAlign=middle;whiteSpace=wrap;rounded=0;" vertex="1" parent="1">
          <mxGeometry x="200" y="330" width="60" height="30" as="geometry" />
        </mxCell>
        <mxCell id="yZcJDPqjgEPUYYeSHxlo-79" value="End" style="ellipse;whiteSpace=wrap;html=1;" vertex="1" parent="1">
          <mxGeometry x="200" y="631.67" width="80" height="53.33" as="geometry" />
        </mxCell>
        <mxCell id="yZcJDPqjgEPUYYeSHxlo-88" style="edgeStyle=orthogonalEdgeStyle;rounded=0;orthogonalLoop=1;jettySize=auto;html=1;" edge="1" parent="1" source="yZcJDPqjgEPUYYeSHxlo-86" target="yZcJDPqjgEPUYYeSHxlo-22">
          <mxGeometry relative="1" as="geometry">
            <mxPoint x="735.75" y="630" as="targetPoint" />
            <Array as="points" />
          </mxGeometry>
        </mxCell>
        <mxCell id="yZcJDPqjgEPUYYeSHxlo-86" value="&lt;div&gt;Activate &lt;span style=&quot;background-color: initial;&quot;&gt;VirtualJoystick&lt;/span&gt;&lt;/div&gt;" style="whiteSpace=wrap;html=1;" vertex="1" parent="1">
          <mxGeometry x="502.24" y="590" width="141.25" height="60" as="geometry" />
        </mxCell>
        <mxCell id="yZcJDPqjgEPUYYeSHxlo-99" value="Yes" style="text;html=1;align=center;verticalAlign=middle;whiteSpace=wrap;rounded=0;" vertex="1" parent="1">
          <mxGeometry x="270" y="260" width="60" height="30" as="geometry" />
        </mxCell>
        <mxCell id="yZcJDPqjgEPUYYeSHxlo-100" value="Yes" style="text;html=1;align=center;verticalAlign=middle;whiteSpace=wrap;rounded=0;" vertex="1" parent="1">
          <mxGeometry x="190" y="470" width="60" height="30" as="geometry" />
        </mxCell>
        <mxCell id="yZcJDPqjgEPUYYeSHxlo-139" style="edgeStyle=orthogonalEdgeStyle;rounded=0;orthogonalLoop=1;jettySize=auto;html=1;exitX=1;exitY=0.5;exitDx=0;exitDy=0;entryX=0;entryY=0.5;entryDx=0;entryDy=0;" edge="1" parent="1" source="yZcJDPqjgEPUYYeSHxlo-138" target="yZcJDPqjgEPUYYeSHxlo-145">
          <mxGeometry relative="1" as="geometry">
            <mxPoint x="473" y="289.0021739130435" as="sourcePoint" />
            <mxPoint x="517.8699999999997" y="289" as="targetPoint" />
          </mxGeometry>
        </mxCell>
        <mxCell id="yZcJDPqjgEPUYYeSHxlo-138" value="Activate Maze UI, deactivate MainMenu" style="rounded=0;whiteSpace=wrap;html=1;" vertex="1" parent="1">
          <mxGeometry x="330" y="259.0021739130435" width="120" height="60" as="geometry" />
        </mxCell>
        <mxCell id="yZcJDPqjgEPUYYeSHxlo-154" style="edgeStyle=orthogonalEdgeStyle;rounded=0;orthogonalLoop=1;jettySize=auto;html=1;" edge="1" parent="1" source="yZcJDPqjgEPUYYeSHxlo-140" target="yZcJDPqjgEPUYYeSHxlo-86">
          <mxGeometry relative="1" as="geometry" />
        </mxCell>
        <mxCell id="yZcJDPqjgEPUYYeSHxlo-165" style="edgeStyle=orthogonalEdgeStyle;rounded=0;orthogonalLoop=1;jettySize=auto;html=1;entryX=0;entryY=0.5;entryDx=0;entryDy=0;" edge="1" parent="1" source="yZcJDPqjgEPUYYeSHxlo-140" target="yZcJDPqjgEPUYYeSHxlo-163">
          <mxGeometry relative="1" as="geometry" />
        </mxCell>
        <mxCell id="yZcJDPqjgEPUYYeSHxlo-140" value="MazeStage&amp;nbsp;&lt;div&gt;Activate&lt;/div&gt;" style="rhombus;whiteSpace=wrap;html=1;" vertex="1" parent="1">
          <mxGeometry x="517.87" y="455" width="110" height="110" as="geometry" />
        </mxCell>
        <mxCell id="yZcJDPqjgEPUYYeSHxlo-142" value="Yes" style="text;html=1;align=center;verticalAlign=middle;whiteSpace=wrap;rounded=0;" vertex="1" parent="1">
          <mxGeometry x="528" y="333" width="60" height="30" as="geometry" />
        </mxCell>
        <mxCell id="yZcJDPqjgEPUYYeSHxlo-146" style="edgeStyle=orthogonalEdgeStyle;rounded=0;orthogonalLoop=1;jettySize=auto;html=1;entryX=0.5;entryY=0;entryDx=0;entryDy=0;" edge="1" parent="1" source="yZcJDPqjgEPUYYeSHxlo-143" target="yZcJDPqjgEPUYYeSHxlo-140">
          <mxGeometry relative="1" as="geometry" />
        </mxCell>
        <mxCell id="yZcJDPqjgEPUYYeSHxlo-143" value="Deactivate FlatSurfaceInstruct,&lt;div&gt;Activate MazePlacement&lt;/div&gt;" style="rounded=0;whiteSpace=wrap;html=1;" vertex="1" parent="1">
          <mxGeometry x="487.8" y="370" width="170.13" height="50" as="geometry" />
        </mxCell>
        <mxCell id="yZcJDPqjgEPUYYeSHxlo-144" style="edgeStyle=orthogonalEdgeStyle;rounded=0;orthogonalLoop=1;jettySize=auto;html=1;exitX=0.5;exitY=1;exitDx=0;exitDy=0;entryX=0.5;entryY=0;entryDx=0;entryDy=0;" edge="1" parent="1" source="yZcJDPqjgEPUYYeSHxlo-145" target="yZcJDPqjgEPUYYeSHxlo-143">
          <mxGeometry relative="1" as="geometry" />
        </mxCell>
        <mxCell id="yZcJDPqjgEPUYYeSHxlo-157" style="edgeStyle=orthogonalEdgeStyle;rounded=0;orthogonalLoop=1;jettySize=auto;html=1;entryX=0;entryY=0.5;entryDx=0;entryDy=0;" edge="1" parent="1" source="yZcJDPqjgEPUYYeSHxlo-145" target="yZcJDPqjgEPUYYeSHxlo-155">
          <mxGeometry relative="1" as="geometry" />
        </mxCell>
        <mxCell id="yZcJDPqjgEPUYYeSHxlo-145" value="Plane detected" style="rhombus;whiteSpace=wrap;html=1;" vertex="1" parent="1">
          <mxGeometry x="517.87" y="234.5" width="110" height="110" as="geometry" />
        </mxCell>
        <mxCell id="yZcJDPqjgEPUYYeSHxlo-181" style="edgeStyle=orthogonalEdgeStyle;rounded=0;orthogonalLoop=1;jettySize=auto;html=1;" edge="1" parent="1" source="yZcJDPqjgEPUYYeSHxlo-149" target="yZcJDPqjgEPUYYeSHxlo-38">
          <mxGeometry relative="1" as="geometry" />
        </mxCell>
        <mxCell id="yZcJDPqjgEPUYYeSHxlo-149" value="Activate Win UI, Deactivate Maze UI" style="rounded=0;whiteSpace=wrap;html=1;" vertex="1" parent="1">
          <mxGeometry x="512.87" y="1040" width="120" height="60" as="geometry" />
        </mxCell>
        <mxCell id="yZcJDPqjgEPUYYeSHxlo-158" value="" style="edgeStyle=orthogonalEdgeStyle;rounded=0;orthogonalLoop=1;jettySize=auto;html=1;entryX=0;entryY=0.5;entryDx=0;entryDy=0;" edge="1" parent="1" source="yZcJDPqjgEPUYYeSHxlo-155" target="yZcJDPqjgEPUYYeSHxlo-145">
          <mxGeometry relative="1" as="geometry">
            <Array as="points">
              <mxPoint x="732" y="210" />
              <mxPoint x="490" y="210" />
              <mxPoint x="490" y="290" />
            </Array>
          </mxGeometry>
        </mxCell>
        <mxCell id="yZcJDPqjgEPUYYeSHxlo-162" style="edgeStyle=orthogonalEdgeStyle;rounded=0;orthogonalLoop=1;jettySize=auto;html=1;entryX=1;entryY=0.5;entryDx=0;entryDy=0;" edge="1" parent="1" source="yZcJDPqjgEPUYYeSHxlo-155" target="yZcJDPqjgEPUYYeSHxlo-54">
          <mxGeometry relative="1" as="geometry">
            <mxPoint x="980" y="1230.6666056315105" as="targetPoint" />
            <Array as="points">
              <mxPoint x="860" y="289" />
              <mxPoint x="860" y="1443" />
            </Array>
          </mxGeometry>
        </mxCell>
        <mxCell id="yZcJDPqjgEPUYYeSHxlo-155" value="Button&amp;nbsp;&lt;div&gt;BackButton&amp;nbsp;&lt;/div&gt;&lt;div&gt;pressed&lt;/div&gt;" style="rhombus;whiteSpace=wrap;html=1;" vertex="1" parent="1">
          <mxGeometry x="676.87" y="234.5" width="110" height="110" as="geometry" />
        </mxCell>
        <mxCell id="yZcJDPqjgEPUYYeSHxlo-159" value="No" style="text;html=1;align=center;verticalAlign=middle;whiteSpace=wrap;rounded=0;" vertex="1" parent="1">
          <mxGeometry x="687.75" y="211" width="60" height="30" as="geometry" />
        </mxCell>
        <mxCell id="yZcJDPqjgEPUYYeSHxlo-166" style="edgeStyle=orthogonalEdgeStyle;rounded=0;orthogonalLoop=1;jettySize=auto;html=1;entryX=1;entryY=0.5;entryDx=0;entryDy=0;" edge="1" parent="1" source="yZcJDPqjgEPUYYeSHxlo-163" target="yZcJDPqjgEPUYYeSHxlo-54">
          <mxGeometry relative="1" as="geometry">
            <mxPoint x="810" y="1220" as="targetPoint" />
            <Array as="points">
              <mxPoint x="860" y="510" />
              <mxPoint x="860" y="1443" />
            </Array>
          </mxGeometry>
        </mxCell>
        <mxCell id="yZcJDPqjgEPUYYeSHxlo-163" value="Button&amp;nbsp;&lt;div&gt;BackButton&amp;nbsp;&lt;/div&gt;&lt;div&gt;pressed&lt;/div&gt;" style="rhombus;whiteSpace=wrap;html=1;" vertex="1" parent="1">
          <mxGeometry x="680.75" y="455" width="110" height="110" as="geometry" />
        </mxCell>
        <mxCell id="yZcJDPqjgEPUYYeSHxlo-164" style="edgeStyle=orthogonalEdgeStyle;rounded=0;orthogonalLoop=1;jettySize=auto;html=1;entryX=0.5;entryY=0;entryDx=0;entryDy=0;exitX=0.5;exitY=0;exitDx=0;exitDy=0;" edge="1" parent="1" source="yZcJDPqjgEPUYYeSHxlo-163" target="yZcJDPqjgEPUYYeSHxlo-140">
          <mxGeometry relative="1" as="geometry" />
        </mxCell>
        <mxCell id="yZcJDPqjgEPUYYeSHxlo-167" value="No" style="text;html=1;align=center;verticalAlign=middle;whiteSpace=wrap;rounded=0;" vertex="1" parent="1">
          <mxGeometry x="692" y="438" width="60" height="30" as="geometry" />
        </mxCell>
        <mxCell id="yZcJDPqjgEPUYYeSHxlo-168" value="Yes" style="text;html=1;align=center;verticalAlign=middle;whiteSpace=wrap;rounded=0;" vertex="1" parent="1">
          <mxGeometry x="770" y="484" width="60" height="30" as="geometry" />
        </mxCell>
        <mxCell id="yZcJDPqjgEPUYYeSHxlo-169" value="Yes" style="text;html=1;align=center;verticalAlign=middle;whiteSpace=wrap;rounded=0;" vertex="1" parent="1">
          <mxGeometry x="770" y="264" width="60" height="30" as="geometry" />
        </mxCell>
        <mxCell id="yZcJDPqjgEPUYYeSHxlo-171" value="No" style="text;html=1;align=center;verticalAlign=middle;whiteSpace=wrap;rounded=0;" vertex="1" parent="1">
          <mxGeometry x="622.87" y="710" width="60" height="30" as="geometry" />
        </mxCell>
        <mxCell id="yZcJDPqjgEPUYYeSHxlo-175" style="edgeStyle=orthogonalEdgeStyle;rounded=0;orthogonalLoop=1;jettySize=auto;html=1;entryX=0.5;entryY=0;entryDx=0;entryDy=0;" edge="1" parent="1" source="yZcJDPqjgEPUYYeSHxlo-172" target="yZcJDPqjgEPUYYeSHxlo-22">
          <mxGeometry relative="1" as="geometry">
            <Array as="points">
              <mxPoint x="749" y="667" />
              <mxPoint x="573" y="667" />
            </Array>
          </mxGeometry>
        </mxCell>
        <mxCell id="yZcJDPqjgEPUYYeSHxlo-177" style="edgeStyle=orthogonalEdgeStyle;rounded=0;orthogonalLoop=1;jettySize=auto;html=1;entryX=1;entryY=0.5;entryDx=0;entryDy=0;" edge="1" parent="1" source="yZcJDPqjgEPUYYeSHxlo-172" target="yZcJDPqjgEPUYYeSHxlo-54">
          <mxGeometry relative="1" as="geometry">
            <mxPoint x="1021.3333129882812" y="820" as="targetPoint" />
            <Array as="points">
              <mxPoint x="860" y="740" />
              <mxPoint x="860" y="1443" />
            </Array>
          </mxGeometry>
        </mxCell>
        <mxCell id="yZcJDPqjgEPUYYeSHxlo-172" value="Button&amp;nbsp;&lt;div&gt;BackButton&amp;nbsp;&lt;/div&gt;&lt;div&gt;pressed&lt;/div&gt;" style="rhombus;whiteSpace=wrap;html=1;" vertex="1" parent="1">
          <mxGeometry x="693.62" y="685" width="110" height="110" as="geometry" />
        </mxCell>
        <mxCell id="yZcJDPqjgEPUYYeSHxlo-173" value="No" style="text;html=1;align=center;verticalAlign=middle;whiteSpace=wrap;rounded=0;" vertex="1" parent="1">
          <mxGeometry x="706.87" y="665" width="60" height="30" as="geometry" />
        </mxCell>
        <mxCell id="yZcJDPqjgEPUYYeSHxlo-174" value="Yes" style="text;html=1;align=center;verticalAlign=middle;whiteSpace=wrap;rounded=0;" vertex="1" parent="1">
          <mxGeometry x="781" y="710" width="60" height="30" as="geometry" />
        </mxCell>
        <mxCell id="yZcJDPqjgEPUYYeSHxlo-180" style="edgeStyle=orthogonalEdgeStyle;rounded=0;orthogonalLoop=1;jettySize=auto;html=1;entryX=1;entryY=0.5;entryDx=0;entryDy=0;" edge="1" parent="1" source="yZcJDPqjgEPUYYeSHxlo-178" target="yZcJDPqjgEPUYYeSHxlo-54">
          <mxGeometry relative="1" as="geometry">
            <mxPoint x="1050" y="1030" as="targetPoint" />
            <Array as="points">
              <mxPoint x="860" y="970" />
              <mxPoint x="860" y="1443" />
            </Array>
          </mxGeometry>
        </mxCell>
        <mxCell id="yZcJDPqjgEPUYYeSHxlo-178" value="Button&amp;nbsp;&lt;div&gt;BackButton&amp;nbsp;&lt;/div&gt;&lt;div&gt;pressed&lt;/div&gt;" style="rhombus;whiteSpace=wrap;html=1;" vertex="1" parent="1">
          <mxGeometry x="670" y="915" width="110" height="110" as="geometry" />
        </mxCell>
        <mxCell id="yZcJDPqjgEPUYYeSHxlo-185" style="edgeStyle=orthogonalEdgeStyle;rounded=0;orthogonalLoop=1;jettySize=auto;html=1;exitX=1;exitY=0.5;exitDx=0;exitDy=0;entryX=0.5;entryY=0;entryDx=0;entryDy=0;" edge="1" parent="1" source="yZcJDPqjgEPUYYeSHxlo-43" target="yZcJDPqjgEPUYYeSHxlo-43">
          <mxGeometry relative="1" as="geometry">
            <mxPoint x="590" y="1260" as="targetPoint" />
            <Array as="points">
              <mxPoint x="680" y="1315" />
              <mxPoint x="680" y="1250" />
              <mxPoint x="573" y="1250" />
            </Array>
          </mxGeometry>
        </mxCell>
        <mxCell id="yZcJDPqjgEPUYYeSHxlo-187" style="edgeStyle=orthogonalEdgeStyle;rounded=0;orthogonalLoop=1;jettySize=auto;html=1;entryX=0.5;entryY=0;entryDx=0;entryDy=0;" edge="1" parent="1" source="yZcJDPqjgEPUYYeSHxlo-186" target="yZcJDPqjgEPUYYeSHxlo-79">
          <mxGeometry relative="1" as="geometry" />
        </mxCell>
        <mxCell id="yZcJDPqjgEPUYYeSHxlo-186" value="Exit AR_Maze" style="rounded=0;whiteSpace=wrap;html=1;" vertex="1" parent="1">
          <mxGeometry x="180" y="539.0021739130435" width="120" height="60" as="geometry" />
        </mxCell>
      </root>
    </mxGraphModel>
  </diagram>
</mxfile>
